<!-- <?xml-stylesheet type="text/css" href="../icons.css"?> -->

<svg onclick="top.svgEventTrigger(event, 'close')" class="close-icon" width="13.229mm" height="13.229mm" version="1.1" viewBox="0 0 13.229 13.229" xmlns="http://www.w3.org/2000/svg">
  <link xmlns="http://www.w3.org/1999/xhtml" rel="stylesheet" href="../icons.css" type="text/css"/>
 <g transform="matrix(.14699 0 0 .14699 1.0394e-6 -30.427)">
  <g style="fill-rule:evenodd">
   <path transform="rotate(-45)" d="m-200.44 203.25h108.14c3.7445 0 6.759 3.0145 6.759 6.759v2e-5c0 3.7445-3.0145 6.759-6.759 6.759h-108.14c-3.7445 0-6.759-3.0145-6.759-6.759v-2e-5c0-3.7445 3.0145-6.759 6.759-6.759z" style="fill-rule:evenodd"/>
   <path transform="rotate(45)" d="m155.94 139.61h108.14c3.7445 0 6.759 3.0145 6.759 6.759v2e-5c0 3.7445-3.0145 6.759-6.759 6.759h-108.14c-3.7445 0-6.759-3.0145-6.759-6.759v-2e-5c0-3.7445 3.0145-6.759 6.759-6.759z" style="fill-rule:evenodd"/>
  </g>
 </g>
</svg>
